<svg width="300" height="305" viewBox="0 0 300 305" fill="none" xmlns="http://www.w3.org/2000/svg">
<path fill-rule="evenodd" clip-rule="evenodd" d="M94 0L122 27.8643L150 0L178 27.8643L206 0L242.485 36.3085L199.473 79.1122L210.717 88.1011L210.966 88.3534C226.84 104.458 242.4 130.115 242.4 155.727C242.4 206.51 201.031 247.679 150 247.679C98.9685 247.679 57.5996 206.51 57.5996 155.727C57.5996 132.932 65.1152 112.799 78.9232 96.7896L66.7657 85.2215C50.1479 104.158 40.7998 128.285 40.7998 155.727C40.7998 215.744 89.6903 264.398 150 264.398C210.309 264.398 259.2 215.744 259.2 155.727C259.2 126.403 246.531 100.607 227.203 80.8752L223.111 76.6979L252.594 46.7351L256.882 50.987C284.173 78.0521 300 114.476 300 155.727C300 238.168 232.843 305 150 305C67.1573 305 0 238.168 0 155.727C0 114.356 17.9157 75.9742 45.1182 48.9967L53.5889 57.4554C28.4657 82.3707 12 117.775 12 155.727C12 231.573 73.7847 293.058 150 293.058C226.215 293.058 288 231.573 288 155.727C288 119.834 275.064 88.1098 252.606 63.7919L239.801 76.8055C258.719 97.8415 271.2 124.922 271.2 155.727C271.2 222.339 216.937 276.339 150 276.339C83.0629 276.339 28.7998 222.339 28.7998 155.727C28.7998 123.061 40.8641 94.3256 62.2035 72.5397L66.3514 68.3049L95.8558 96.3792L91.6001 100.697C77.4427 115.059 69.5996 133.802 69.5996 155.727C69.5996 199.915 105.596 235.737 150 235.737C194.403 235.737 230.4 199.915 230.4 155.727C230.4 134.569 217.25 111.886 202.644 96.965L181.527 80.0831L225.515 36.3085L206 16.8883L178 44.7526L150 16.8883L122 44.7526L94 16.8883L74.4853 36.3085L113.743 75.3756L105.257 83.8197L57.5147 36.3085L94 0Z" fill="#3D2C32"/>
</svg>
