<svg width="287" height="45" xmlns="http://www.w3.org/2000/svg"><path d="M21.31 1.1c3.68 0 6.96.7 9.84 2.1 2.92 1.36 5.28 3.3 7.08 5.82 1.84 2.52 3.06 5.46 3.66 8.82H27.85c-.64-1.4-1.56-2.48-2.76-3.24-1.16-.8-2.5-1.2-4.02-1.2-2.24 0-4.02.84-5.34 2.52-1.28 1.68-1.92 3.94-1.92 6.78 0 2.84.64 5.1 1.92 6.78 1.32 1.68 3.1 2.52 5.34 2.52 1.52 0 2.86-.38 4.02-1.14 1.2-.8 2.12-1.9 2.76-3.3h14.04c-.6 3.36-1.82 6.3-3.66 8.82-1.8 2.52-4.16 4.48-7.08 5.88-2.88 1.36-6.16 2.04-9.84 2.04-4.28 0-8-.9-11.16-2.7-3.16-1.84-5.6-4.4-7.32-7.68C1.15 30.64.31 26.9.31 22.7c0-4.2.84-7.94 2.52-11.22 1.72-3.28 4.16-5.82 7.32-7.62 3.16-1.84 6.88-2.76 11.16-2.76zM68.046 44l-8.04-15.24V44h-13.32V1.52h19.8c3.44 0 6.38.62 8.82 1.86 2.44 1.2 4.26 2.86 5.46 4.98 1.24 2.08 1.86 4.44 1.86 7.08 0 2.84-.8 5.36-2.4 7.56-1.56 2.2-3.82 3.78-6.78 4.74L82.686 44h-14.64zm-8.04-24.12h5.28c1.28 0 2.24-.28 2.88-.84.64-.6.96-1.52.96-2.76 0-1.12-.34-2-1.02-2.64-.64-.64-1.58-.96-2.82-.96h-5.28v7.2zM107.581.8c4 0 7.66.94 10.98 2.82 3.32 1.84 5.94 4.42 7.86 7.74 1.96 3.32 2.94 7.06 2.94 11.22 0 4.16-.98 7.9-2.94 11.22-1.92 3.32-4.56 5.92-7.92 7.8-3.32 1.88-6.96 2.82-10.92 2.82-4 0-7.68-.94-11.04-2.82-3.32-1.88-5.96-4.48-7.92-7.8-1.96-3.32-2.94-7.06-2.94-11.22 0-4.16.98-7.9 2.94-11.22 1.96-3.32 4.6-5.9 7.92-7.74 3.36-1.88 7.04-2.82 11.04-2.82zm0 12.3c-2.68 0-4.74.86-6.18 2.58-1.44 1.68-2.16 3.98-2.16 6.9 0 2.88.72 5.18 2.16 6.9 1.44 1.68 3.5 2.52 6.18 2.52 2.64 0 4.68-.84 6.12-2.52 1.44-1.72 2.16-4.02 2.16-6.9 0-2.92-.72-5.22-2.16-6.9-1.44-1.72-3.48-2.58-6.12-2.58zm87.785-11.58L185.646 44h-16.56l-4.92-24.12-4.92 24.12h-16.56l-9.72-42.48h14.34l3.84 26.76 5.76-26.76h14.52l5.76 26.76 3.84-26.76h14.34zM240.883 44h-13.32l-14.1-21.36V44h-13.32V1.52h13.32l14.1 21.72V1.52h13.32V44zm45.797-21.36c0 4.04-.9 7.68-2.7 10.92-1.8 3.24-4.38 5.8-7.74 7.68-3.32 1.84-7.2 2.76-11.64 2.76h-17.7V1.52h17.7c4.44 0 8.32.9 11.64 2.7 3.36 1.8 5.94 4.3 7.74 7.5 1.8 3.2 2.7 6.84 2.7 10.92zm-23.28 9.48c3 0 5.38-.82 7.14-2.46 1.76-1.64 2.64-3.98 2.64-7.02 0-3.04-.88-5.38-2.64-7.02-1.76-1.64-4.14-2.46-7.14-2.46h-3.18v18.96h3.18z" fill="#000" fill-rule="nonzero"/></svg>