<svg width="300" height="305" xmlns="http://www.w3.org/2000/svg"><path d="M94 0l28 27.864L150 0l28 27.864L206 0l36.485 36.309-43.012 42.803 11.244 8.99.249.251c15.874 16.105 31.434 41.762 31.434 67.374 0 50.783-41.369 91.952-92.4 91.952-51.031 0-92.4-41.169-92.4-91.952 0-22.795 7.515-42.928 21.323-58.937L66.766 85.22C50.148 104.159 40.8 128.286 40.8 155.728c0 60.017 48.89 108.671 109.2 108.671 60.309 0 109.2-48.654 109.2-108.671 0-29.324-12.669-55.12-31.997-74.852l-4.092-4.177 29.483-29.963 4.288 4.252C284.173 78.052 300 114.476 300 155.727 300 238.168 232.843 305 150 305S0 238.168 0 155.727c0-41.371 17.916-79.753 45.118-106.73l8.47 8.458C28.467 82.371 12 117.775 12 155.727c0 75.846 61.785 137.331 138 137.331s138-61.485 138-137.331c0-35.893-12.936-67.617-35.394-91.935l-12.805 13.013c18.918 21.036 31.399 48.117 31.399 78.922 0 66.612-54.263 120.612-121.2 120.612-66.937 0-121.2-54-121.2-120.612 0-32.666 12.064-61.401 33.403-83.187l4.148-4.235 29.505 28.074-4.256 4.318c-14.157 14.362-22 33.105-22 55.03 0 44.188 35.996 80.01 80.4 80.01 44.403 0 80.4-35.822 80.4-80.01 0-21.158-13.15-43.841-27.756-58.762l-21.117-16.882 43.988-43.774L206 16.889l-28 27.864-28-27.865-28 27.865-28-27.865-19.515 19.42 39.258 39.068-8.486 8.444-47.742-47.511L94 0z" fill="#000" fill-rule="evenodd"/></svg>