<?xml version="1.0" encoding="UTF-8"?>
<svg width="300px" height="305px" viewBox="0 0 300 305" version="1.1" xmlns="http://www.w3.org/2000/svg" xmlns:xlink="http://www.w3.org/1999/xlink">
    <g id="Page-1" stroke="none" stroke-width="1" fill="none" fill-rule="evenodd">
        <g id="Ellipse-7.3-(Stroke)-2" fill="#000000">
            <path d="M94,0 L122,27.8643 L150,0 L178,27.8643 L206,0 L242.485,36.3085 L199.473,79.1122 L210.717,88.1011 L210.966,88.3534 C226.84,104.458 242.4,130.115 242.4,155.727 C242.4,206.51 201.031,247.679 150,247.679 C98.9685,247.679 57.5996,206.51 57.5996,155.727 C57.5996,132.932 65.1152,112.799 78.9232,96.7896 L66.7657,85.2215 C50.1479,104.158 40.7998,128.285 40.7998,155.727 C40.7998,215.744 89.6903,264.398 150,264.398 C210.309,264.398 259.2,215.744 259.2,155.727 C259.2,126.403 246.531,100.607 227.203,80.8752 L223.111,76.6979 L252.594,46.7351 L256.882,50.987 C284.173,78.0521 300,114.476 300,155.727 C300,238.168 232.843,305 150,305 C67.1573,305 0,238.168 0,155.727 C0,114.356 17.9157,75.9742 45.1182,48.9967 L53.5889,57.4554 C28.4657,82.3707 12,117.775 12,155.727 C12,231.573 73.7847,293.058 150,293.058 C226.215,293.058 288,231.573 288,155.727 C288,119.834 275.064,88.1098 252.606,63.7919 L239.801,76.8055 C258.719,97.8415 271.2,124.922 271.2,155.727 C271.2,222.339 216.937,276.339 150,276.339 C83.0629,276.339 28.7998,222.339 28.7998,155.727 C28.7998,123.061 40.8641,94.3256 62.2035,72.5397 L66.3514,68.3049 L95.8558,96.3792 L91.6001,100.697 C77.4427,115.059 69.5996,133.802 69.5996,155.727 C69.5996,199.915 105.596,235.737 150,235.737 C194.403,235.737 230.4,199.915 230.4,155.727 C230.4,134.569 217.25,111.886 202.644,96.965 L181.527,80.0831 L225.515,36.3085 L206,16.8883 L178,44.7526 L150,16.8883 L122,44.7526 L94,16.8883 L74.4853,36.3085 L113.743,75.3756 L105.257,83.8197 L57.5147,36.3085 L94,0 Z" id="Shape"></path>
        </g>
    </g>
</svg>