<?xml version="1.0" encoding="UTF-8"?>
<svg width="287px" height="45px" viewBox="0 0 287 45" version="1.1" xmlns="http://www.w3.org/2000/svg" xmlns:xlink="http://www.w3.org/1999/xlink">
    <g id="Page-1" stroke="none" stroke-width="1" fill="none" fill-rule="evenodd">
        <g id="Group-3.3" fill="#000000" fill-rule="nonzero">
            <path d="M21.3098,1.1 C24.9898,1.1 28.2698,1.8 31.1498,3.2 C34.0698,4.56 36.4298,6.5 38.2298,9.02 C40.0698,11.54 41.2898,14.48 41.8898,17.84 L27.8498,17.84 C27.2098,16.44 26.2898,15.36 25.0898,14.6 C23.9298,13.8 22.5898,13.4 21.0698,13.4 C18.8298,13.4 17.0498,14.24 15.7298,15.92 C14.4498,17.6 13.8098,19.86 13.8098,22.7 C13.8098,25.54 14.4498,27.8 15.7298,29.48 C17.0498,31.16 18.8298,32 21.0698,32 C22.5898,32 23.9298,31.62 25.0898,30.86 C26.2898,30.06 27.2098,28.96 27.8498,27.56 L41.8898,27.56 C41.2898,30.92 40.0698,33.86 38.2298,36.38 C36.4298,38.9 34.0698,40.86 31.1498,42.26 C28.2698,43.62 24.9898,44.3 21.3098,44.3 C17.0298,44.3 13.3098,43.4 10.1498,41.6 C6.9898,39.76 4.5498,37.2 2.8298,33.92 C1.1498,30.64 0.3098,26.9 0.3098,22.7 C0.3098,18.5 1.1498,14.76 2.8298,11.48 C4.5498,8.2 6.9898,5.66 10.1498,3.86 C13.3098,2.02 17.0298,1.1 21.3098,1.1 Z M68.046,44 L60.006,28.76 L60.006,44 L46.686,44 L46.686,1.52 L66.486,1.52 C69.926,1.52 72.866,2.14 75.306,3.38 C77.746,4.58 79.566,6.24 80.766,8.36 C82.006,10.44 82.626,12.8 82.626,15.44 C82.626,18.28 81.826,20.8 80.226,23 C78.666,25.2 76.406,26.78 73.446,27.74 L82.686,44 L68.046,44 Z M60.006,19.88 L65.286,19.88 C66.566,19.88 67.526,19.6 68.166,19.04 C68.806,18.44 69.126,17.52 69.126,16.28 C69.126,15.16 68.786,14.28 68.106,13.64 C67.466,13 66.526,12.68 65.286,12.68 L60.006,12.68 L60.006,19.88 Z M107.581,0.8 C111.581,0.8 115.241,1.74 118.561,3.62 C121.881,5.46 124.501,8.04 126.421,11.36 C128.381,14.68 129.361,18.42 129.361,22.58 C129.361,26.74 128.381,30.48 126.421,33.8 C124.501,37.12 121.861,39.72 118.501,41.6 C115.181,43.48 111.541,44.42 107.581,44.42 C103.581,44.42 99.901,43.48 96.541,41.6 C93.221,39.72 90.581,37.12 88.621,33.8 C86.661,30.48 85.681,26.74 85.681,22.58 C85.681,18.42 86.661,14.68 88.621,11.36 C90.581,8.04 93.221,5.46 96.541,3.62 C99.901,1.74 103.581,0.8 107.581,0.8 Z M107.581,13.1 C104.901,13.1 102.841,13.96 101.401,15.68 C99.961,17.36 99.241,19.66 99.241,22.58 C99.241,25.46 99.961,27.76 101.401,29.48 C102.841,31.16 104.901,32 107.581,32 C110.221,32 112.261,31.16 113.701,29.48 C115.141,27.76 115.861,25.46 115.861,22.58 C115.861,19.66 115.141,17.36 113.701,15.68 C112.261,13.96 110.221,13.1 107.581,13.1 Z M195.366,1.52 L185.646,44 L169.086,44 L164.166,19.88 L159.246,44 L142.686,44 L132.966,1.52 L147.306,1.52 L151.146,28.28 L156.906,1.52 L171.426,1.52 L177.186,28.28 L181.026,1.52 L195.366,1.52 Z M240.883,44 L227.563,44 L213.463,22.64 L213.463,44 L200.143,44 L200.143,1.52 L213.463,1.52 L227.563,23.24 L227.563,1.52 L240.883,1.52 L240.883,44 Z M286.68,22.64 C286.68,26.68 285.78,30.32 283.98,33.56 C282.18,36.8 279.6,39.36 276.24,41.24 C272.92,43.08 269.04,44 264.6,44 L246.9,44 L246.9,1.52 L264.6,1.52 C269.04,1.52 272.92,2.42 276.24,4.22 C279.6,6.02 282.18,8.52 283.98,11.72 C285.78,14.92 286.68,18.56 286.68,22.64 Z M263.4,32.12 C266.4,32.12 268.78,31.3 270.54,29.66 C272.3,28.02 273.18,25.68 273.18,22.64 C273.18,19.6 272.3,17.26 270.54,15.62 C268.78,13.98 266.4,13.16 263.4,13.16 L260.22,13.16 L260.22,32.12 L263.4,32.12 Z" id="Shape"></path>
        </g>
    </g>
</svg>